<svg width="37" height="37" viewBox="0 0 37 37" fill="none" xmlns="http://www.w3.org/2000/svg">
<rect width="37" height="37" rx="18.5" fill="#C9F48A"/>
<path fill-rule="evenodd" clip-rule="evenodd" d="M26.9098 8.87836C26.3473 8.31595 25.5843 8 24.7888 8C23.9933 8 23.2304 8.31595 22.6678 8.87836L21.9608 9.58636L26.9108 14.5364L27.6168 13.8294C27.8955 13.5508 28.1165 13.22 28.2673 12.856C28.4181 12.492 28.4957 12.1019 28.4957 11.7079C28.4957 11.3139 28.4181 10.9237 28.2673 10.5597C28.1165 10.1957 27.8955 9.86494 27.6168 9.58636L26.9098 8.87836ZM25.4958 15.9504L20.5458 11.0004L11.4558 20.0914C11.2569 20.2903 11.118 20.5412 11.0548 20.8154L10.0258 25.2704C9.98749 25.4357 9.99189 25.6082 10.0386 25.7714C10.0853 25.9346 10.1728 26.0833 10.2929 26.2033C10.4129 26.3233 10.5616 26.4109 10.7248 26.4576C10.888 26.5043 11.0604 26.5087 11.2258 26.4704L15.6818 25.4424C15.9556 25.3791 16.2062 25.2401 16.4048 25.0414L25.4958 15.9504Z" fill="black"/>
</svg>
