<svg width="24" height="30" viewBox="0 0 24 30" fill="none" xmlns="http://www.w3.org/2000/svg">
<path d="M20.2207 30H3.77929C2.77696 30 1.81568 29.6024 1.10693 28.8947C0.398174 28.187 0 27.2271 0 26.2262V24.9779C0 18.9866 5.38322 14.1094 12 14.1094C18.6168 14.1094 24 18.9836 24 24.9779V26.2262C24 27.2271 23.6018 28.187 22.8931 28.8947C22.1843 29.6024 21.223 30 20.2207 30ZM12 15.6219C6.21618 15.6219 1.51172 19.8184 1.51172 24.9809V26.2292C1.51172 26.8298 1.75062 27.4057 2.17587 27.8303C2.60113 28.255 3.17789 28.4935 3.77929 28.4935H20.2207C20.8221 28.4935 21.3989 28.255 21.8241 27.8303C22.2494 27.4057 22.4883 26.8298 22.4883 26.2292V24.9779C22.4883 19.8184 17.7838 15.6219 12 15.6219ZM12 11.8466C10.8267 11.8469 9.67967 11.4998 8.70396 10.8491C7.72825 10.1984 6.9677 9.27344 6.51849 8.19112C6.06929 7.1088 5.9516 5.91777 6.18031 4.76866C6.40903 3.61955 6.97387 2.56398 7.80342 1.73544C8.63296 0.906894 9.68993 0.342603 10.8407 0.113928C11.9914 -0.114747 13.1842 0.00246641 14.2682 0.450744C15.3522 0.899021 16.2788 1.65823 16.9306 2.63234C17.5825 3.60646 17.9305 4.75173 17.9305 5.92332C17.9293 7.49365 17.3041 8.99934 16.1922 10.1099C15.0804 11.2204 13.5726 11.845 12 11.8466ZM12 1.51102C11.1256 1.51072 10.2708 1.76937 9.54367 2.25425C8.81653 2.73913 8.24974 3.42846 7.91499 4.23504C7.58025 5.04162 7.49258 5.92921 7.66309 6.78555C7.8336 7.64188 8.25462 8.42849 8.8729 9.04586C9.49117 9.66323 10.2789 10.0836 11.1365 10.2539C11.9941 10.4242 12.883 10.3366 13.6907 10.0024C14.4985 9.66811 15.1888 9.10214 15.6744 8.37607C16.16 7.64999 16.419 6.79642 16.4187 5.92332C16.4175 4.75347 15.9516 3.63188 15.1232 2.80468C14.2948 1.97747 13.1716 1.51222 12 1.51102Z" fill="white"/>
</svg>
