<svg width="37" height="37" viewBox="0 0 37 37" fill="none" xmlns="http://www.w3.org/2000/svg">
<rect width="37" height="37" rx="18.5" fill="#C9F48A"/>
<path d="M13.3402 13.2188L13.3827 12.875C13.4131 12.6333 13.5308 12.411 13.7135 12.2499C13.8963 12.0888 14.1315 11.9999 14.3752 12H21.6252C21.8688 11.9999 22.1041 12.0888 22.2868 12.2499C22.4696 12.411 22.5872 12.6333 22.6177 12.875L22.6602 13.2181C22.6646 13.2535 22.6615 13.2894 22.6509 13.3234C22.6404 13.3575 22.6227 13.3888 22.599 13.4155C22.5753 13.4421 22.5462 13.4634 22.5136 13.4778C22.4811 13.4923 22.4458 13.4997 22.4102 13.4994H13.5883C13.5529 13.4994 13.5179 13.4919 13.4856 13.4773C13.4533 13.4628 13.4244 13.4415 13.401 13.415C13.3775 13.3884 13.36 13.3572 13.3495 13.3234C13.339 13.2896 13.3358 13.2539 13.3402 13.2188ZM20.5627 14.5C20.6741 14.9292 20.9248 15.3092 21.2754 15.5807C21.626 15.8521 22.0568 15.9996 22.5002 16H22.7245C22.7602 16.0003 22.7955 15.9929 22.828 15.9785C22.8606 15.964 22.8897 15.9427 22.9134 15.9161C22.937 15.8895 22.9547 15.8581 22.9653 15.824C22.9758 15.79 22.979 15.7541 22.9745 15.7188L22.8495 14.7188C22.8419 14.658 22.8122 14.6022 22.7661 14.5618C22.72 14.5215 22.6608 14.4995 22.5995 14.5H20.5627ZM13.2758 16H13.5002C13.9436 15.9996 14.3743 15.8521 14.7249 15.5807C15.0755 15.3092 15.3262 14.9292 15.4377 14.5H13.4008C13.3396 14.4995 13.2803 14.5215 13.2342 14.5618C13.1881 14.6022 13.1584 14.658 13.1508 14.7188L13.0258 15.7188C13.0213 15.7541 13.0245 15.79 13.035 15.824C13.0456 15.8581 13.0633 15.8895 13.087 15.9161C13.1106 15.9427 13.1397 15.964 13.1723 15.9785C13.2049 15.9929 13.2402 16.0003 13.2758 16ZM23.9927 23.875L23.1602 17.2188C23.1525 17.158 23.1228 17.1022 23.0767 17.0618C23.0307 17.0215 22.9714 16.9995 22.9102 17H22.5002C21.7915 16.999 21.1061 16.7476 20.5649 16.2901C20.0237 15.8326 19.6616 15.1986 19.5427 14.5H18.5002V16.9831C18.5018 17.1121 18.4545 17.2369 18.3679 17.3326C18.2813 17.4282 18.1618 17.4876 18.0333 17.4988C17.9649 17.5033 17.8963 17.4937 17.8318 17.4706C17.7672 17.4475 17.7081 17.4114 17.6581 17.3646C17.6081 17.3177 17.5683 17.261 17.5411 17.1981C17.514 17.1351 17.5 17.0673 17.5002 16.9988V14.5H16.4577C16.3387 15.1986 15.9766 15.8326 15.4354 16.2901C14.8943 16.7476 14.2088 16.999 13.5002 17H13.0883C13.0271 16.9995 12.9678 17.0215 12.9217 17.0618C12.8756 17.1022 12.8459 17.158 12.8383 17.2188L12.0077 23.875C11.9852 24.0555 12.0124 24.2387 12.0863 24.4049C12.1602 24.571 12.278 24.7139 12.427 24.8181C12.6027 24.9388 12.8114 25.0023 13.0245 25H15.5433C15.7657 25 15.9817 24.9259 16.1573 24.7894C16.3329 24.6529 16.4579 24.4618 16.5127 24.2463L18.0002 18.4963L19.487 24.2425C19.5411 24.4588 19.6659 24.6509 19.8417 24.7881C20.0175 24.9254 20.234 25 20.457 25H22.9758C23.1888 25.0028 23.3975 24.9397 23.5733 24.8194C23.7225 24.7151 23.8405 24.572 23.9144 24.4056C23.9883 24.2391 24.0154 24.0557 23.9927 23.875Z" fill="black"/>
</svg>
