<svg width="25" height="25" viewBox="0 0 25 25" fill="none" xmlns="http://www.w3.org/2000/svg">
<path d="M13.3942 8.92944H11.1618C9.92891 8.92944 8.92944 9.92891 8.92944 11.1618V13.3942C8.92944 14.6271 9.92891 15.6266 11.1618 15.6266H13.3942C14.6271 15.6266 15.6266 14.6271 15.6266 13.3942V11.1618C15.6266 9.92891 14.6271 8.92944 13.3942 8.92944Z" fill="white"/>
<path d="M13.3942 0H11.1618C9.92891 0 8.92944 0.999466 8.92944 2.23237V4.46474C8.92944 5.69764 9.92891 6.69711 11.1618 6.69711H13.3942C14.6271 6.69711 15.6266 5.69764 15.6266 4.46474V2.23237C15.6266 0.999466 14.6271 0 13.3942 0Z" fill="white"/>
<path d="M22.3236 8.92944H20.0913C18.8584 8.92944 17.8589 9.92891 17.8589 11.1618V13.3942C17.8589 14.6271 18.8584 15.6266 20.0913 15.6266H22.3236C23.5565 15.6266 24.556 14.6271 24.556 13.3942V11.1618C24.556 9.92891 23.5565 8.92944 22.3236 8.92944Z" fill="white"/>
<path d="M22.3236 0H20.0913C18.8584 0 17.8589 0.999466 17.8589 2.23237V4.46474C17.8589 5.69764 18.8584 6.69711 20.0913 6.69711H22.3236C23.5565 6.69711 24.556 5.69764 24.556 4.46474V2.23237C24.556 0.999466 23.5565 0 22.3236 0Z" fill="white"/>
<path d="M22.3236 17.8589H20.0913C18.8584 17.8589 17.8589 18.8584 17.8589 20.0913V22.3236C17.8589 23.5565 18.8584 24.556 20.0913 24.556H22.3236C23.5565 24.556 24.556 23.5565 24.556 22.3236V20.0913C24.556 18.8584 23.5565 17.8589 22.3236 17.8589Z" fill="white"/>
<path d="M13.3942 17.8589H11.1618C9.92891 17.8589 8.92944 18.8584 8.92944 20.0913V22.3236C8.92944 23.5565 9.92891 24.556 11.1618 24.556H13.3942C14.6271 24.556 15.6266 23.5565 15.6266 22.3236V20.0913C15.6266 18.8584 14.6271 17.8589 13.3942 17.8589Z" fill="white"/>
<path d="M4.46474 8.92944H2.23237C0.999466 8.92944 0 9.92891 0 11.1618V13.3942C0 14.6271 0.999466 15.6266 2.23237 15.6266H4.46474C5.69764 15.6266 6.69711 14.6271 6.69711 13.3942V11.1618C6.69711 9.92891 5.69764 8.92944 4.46474 8.92944Z" fill="white"/>
<path d="M4.46474 0H2.23237C0.999466 0 0 0.999466 0 2.23237V4.46474C0 5.69764 0.999466 6.69711 2.23237 6.69711H4.46474C5.69764 6.69711 6.69711 5.69764 6.69711 4.46474V2.23237C6.69711 0.999466 5.69764 0 4.46474 0Z" fill="white"/>
<path d="M4.46474 17.8589H2.23237C0.999466 17.8589 0 18.8584 0 20.0913V22.3236C0 23.5565 0.999466 24.556 2.23237 24.556H4.46474C5.69764 24.556 6.69711 23.5565 6.69711 22.3236V20.0913C6.69711 18.8584 5.69764 17.8589 4.46474 17.8589Z" fill="white"/>
</svg>
