<svg width="28" height="28" viewBox="0 0 28 28" fill="none" xmlns="http://www.w3.org/2000/svg">
<path d="M25.1069 11.1276C25.1069 10.842 24.9937 10.5681 24.7921 10.3661C24.5905 10.1641 24.3171 10.0507 24.032 10.0507C23.747 10.0507 23.4736 10.1641 23.272 10.3661C23.0704 10.5681 22.9572 10.842 22.9572 11.1276H25.1069ZM5.04283 11.1276C5.04283 10.842 4.92958 10.5681 4.72801 10.3661C4.52643 10.1641 4.25304 10.0507 3.96797 10.0507C3.6829 10.0507 3.4095 10.1641 3.20793 10.3661C3.00635 10.5681 2.89311 10.842 2.89311 11.1276H5.04283ZM26.1388 14.7606C26.2372 14.8664 26.3558 14.9513 26.4877 15.0101C26.6195 15.069 26.7619 15.1006 26.9062 15.1032C27.0505 15.1057 27.1939 15.0791 27.3277 15.025C27.4615 14.9708 27.5831 14.8902 27.6852 14.7879C27.7872 14.6856 27.8677 14.5638 27.9218 14.4297C27.9758 14.2956 28.0024 14.152 27.9998 14.0074C27.9973 13.8628 27.9657 13.7202 27.907 13.5881C27.8482 13.456 27.7635 13.3371 27.6579 13.2385L26.1388 14.7606ZM14 1.07601L14.7596 0.314961C14.558 0.113281 14.2848 0 14 0C13.7152 0 13.442 0.113281 13.2404 0.314961L14 1.07601ZM0.342104 13.2385C0.2365 13.3371 0.151798 13.456 0.0930507 13.5881C0.0343031 13.7202 0.00271367 13.8628 0.000167279 14.0074C-0.00237912 14.152 0.0241694 14.2956 0.0782292 14.4297C0.132289 14.5638 0.212752 14.6856 0.314819 14.7879C0.416886 14.8902 0.538466 14.9708 0.672305 15.025C0.806144 15.0791 0.9495 15.1057 1.09382 15.1032C1.23814 15.1006 1.38048 15.069 1.51232 15.0101C1.64417 14.9513 1.76284 14.8664 1.86124 14.7606L0.342104 13.2385ZM6.83426 28H21.1657V25.8461H6.83426V28ZM25.1069 24.0511V11.1276H22.9572V24.0511H25.1069ZM5.04283 24.0511V11.1276H2.89311V24.0511H5.04283ZM27.6579 13.2385L14.7596 0.314961L13.2404 1.83706L26.1388 14.7606L27.6579 13.2385ZM13.2404 0.314961L0.342104 13.2385L1.86124 14.7606L14.7596 1.83706L13.2404 0.314961ZM21.1657 28C22.211 28 23.2134 27.584 23.9526 26.8434C24.6917 26.1029 25.1069 25.0984 25.1069 24.0511H22.9572C22.9572 25.042 22.1546 25.8461 21.1657 25.8461V28ZM6.83426 25.8461C5.84539 25.8461 5.04283 25.042 5.04283 24.0511H2.89311C2.89311 25.0984 3.30833 26.1029 4.04744 26.8434C4.78655 27.584 5.789 28 6.83426 28V25.8461Z" fill="white"/>
</svg>
