<svg width="37" height="37" viewBox="0 0 37 37" fill="none" xmlns="http://www.w3.org/2000/svg">
<rect width="37" height="37" rx="18.5" fill="#C9F48A"/>
<path d="M16.1281 10L15.4938 10.3181C15.4938 11.3191 15.5187 13.0638 15.9281 14.4106C17.75 14.8544 18.6688 14.8544 20.4906 14.4106C20.9062 13.0669 20.925 11.7062 20.9281 10.3181L20.2906 10C20.1531 10.1794 19.925 10.47 19.6094 10.8303C19.3844 11.0853 19.1469 11.3416 18.9188 11.5428C18.8063 11.6434 18.6969 11.7303 18.5875 11.7981C18.475 11.8669 18.3656 11.9262 18.2094 11.9262C18.0531 11.9262 17.9437 11.8669 17.8312 11.7981C17.7219 11.7303 17.6125 11.6434 17.5 11.5428C17.2719 11.3416 17.0344 11.0853 16.8094 10.8303C16.4937 10.47 16.2656 10.1794 16.1281 10ZM15.8594 14.97L12 22.6919C12.0088 22.7263 12.025 22.7638 12.0675 22.8106C12.13 22.8825 12.2419 22.97 12.3991 23.0513C12.7141 23.22 13.2028 23.3731 13.7969 23.495C14.9844 23.7388 16.6 23.8638 18.2094 23.8638C19.8187 23.8638 21.4344 23.7388 22.6219 23.495C23.2156 23.3731 23.7063 23.22 24.0188 23.0513C24.1781 22.97 24.2875 22.8825 24.35 22.8106C24.3938 22.7638 24.4094 22.7263 24.4188 22.6919L20.5594 14.97C18.7469 15.4044 17.6719 15.4044 15.8594 14.97Z" fill="black"/>
</svg>
