<svg width="37" height="37" viewBox="0 0 37 37" fill="none" xmlns="http://www.w3.org/2000/svg">
<rect width="37" height="37" rx="18.5" fill="#C9F48A"/>
<path fill-rule="evenodd" clip-rule="evenodd" d="M20.0789 9.69922C20.4687 9.69925 20.8532 9.79006 21.2018 9.96446L22.9004 10.8146C23.4108 11.0698 23.8636 11.4267 24.231 11.8634C24.5984 12.3002 24.8725 12.8074 25.0365 13.354L26.9292 19.6621C27.0426 20.0396 27.019 20.445 26.8627 20.8069C26.7064 21.1687 26.4274 21.4638 26.0749 21.6401L25.2281 22.0627C25.0641 22.1447 24.8776 22.1706 24.6973 22.1363C24.5171 22.1019 24.3532 22.0093 24.2308 21.8727L23.8208 21.4134L23.5965 22.8793C23.457 23.418 23.1425 23.8951 22.7024 24.2355C22.2622 24.576 21.7215 24.7606 21.165 24.7603H16.4358C15.8794 24.7606 15.3386 24.576 14.8985 24.2355C14.4583 23.8951 14.1438 23.418 14.0043 22.8793L13.7801 21.4134L13.3701 21.8727C13.2476 22.0095 13.0835 22.1022 12.9031 22.1366C12.7227 22.1709 12.536 22.1449 12.3719 22.0627L11.5251 21.6401C11.1725 21.4638 10.8935 21.1687 10.7373 20.8069C10.581 20.445 10.5574 20.0396 10.6708 19.6621L12.5635 13.354C12.7275 12.8074 13.0016 12.3002 13.369 11.8634C13.7364 11.4267 14.1892 11.0698 14.6996 10.8146L16.399 9.96446C16.7476 9.79006 17.1321 9.69925 17.5219 9.69922H20.0789ZM20.0789 11.3727H17.5219C17.4249 11.3728 17.3286 11.3898 17.2374 11.4229L17.1479 11.4614L16.3446 11.863L18.8004 15.6818L21.2562 11.8613L20.4529 11.4597C20.3661 11.4165 20.2724 11.3888 20.176 11.3777L20.0789 11.3727Z" fill="black"/>
</svg>
