<svg width="37" height="37" viewBox="0 0 37 37" fill="none" xmlns="http://www.w3.org/2000/svg">
<rect width="37" height="37" rx="18.5" fill="#C9F48A"/>
<path d="M11 19C11 23.4184 14.5816 27 19 27C23.4184 27 27 23.4184 27 19C27 14.5816 23.4184 11 19 11V12.6C20.505 12.6001 21.9618 13.1306 23.1145 14.0983C24.2671 15.0659 25.0419 16.4088 25.3027 17.8911C25.5635 19.3733 25.2935 20.9 24.5404 22.203C23.7872 23.5059 22.5989 24.5018 21.1843 25.0155C19.7697 25.5293 18.2193 25.5281 16.8055 25.0122C15.3917 24.4963 14.205 23.4986 13.4538 22.1945C12.7026 20.8904 12.435 19.3633 12.698 17.8815C12.961 16.3996 13.7379 15.0579 14.892 14.092L16.6 15.8V11H11.8L13.7568 12.9576C12.8906 13.7079 12.196 14.6359 11.7203 15.6785C11.2446 16.7212 10.9989 17.854 11 19Z" fill="black"/>
</svg>
