<svg width="70" height="70" viewBox="0 0 70 70" fill="none" xmlns="http://www.w3.org/2000/svg">
<circle cx="35" cy="35" r="35" fill="#C9F48A"/>
<path d="M46.1069 32.1276C46.1069 31.842 45.9937 31.5681 45.7921 31.3661C45.5905 31.1641 45.3171 31.0507 45.032 31.0507C44.747 31.0507 44.4736 31.1641 44.272 31.3661C44.0704 31.5681 43.9572 31.842 43.9572 32.1276H46.1069ZM26.0428 32.1276C26.0428 31.842 25.9296 31.5681 25.728 31.3661C25.5264 31.1641 25.253 31.0507 24.968 31.0507C24.6829 31.0507 24.4095 31.1641 24.2079 31.3661C24.0064 31.5681 23.8931 31.842 23.8931 32.1276H26.0428ZM47.1388 35.7606C47.2372 35.8664 47.3558 35.9513 47.4877 36.0101C47.6195 36.069 47.7619 36.1006 47.9062 36.1032C48.0505 36.1057 48.1939 36.0791 48.3277 36.025C48.4615 35.9708 48.5831 35.8902 48.6852 35.7879C48.7872 35.6856 48.8677 35.5638 48.9218 35.4297C48.9758 35.2956 49.0024 35.152 48.9998 35.0074C48.9973 34.8628 48.9657 34.7202 48.907 34.5881C48.8482 34.456 48.7635 34.3371 48.6579 34.2385L47.1388 35.7606ZM35 22.076L35.7596 21.315C35.558 21.1133 35.2848 21 35 21C34.7152 21 34.442 21.1133 34.2404 21.315L35 22.076ZM21.3421 34.2385C21.2365 34.3371 21.1518 34.456 21.0931 34.5881C21.0343 34.7202 21.0027 34.8628 21.0002 35.0074C20.9976 35.152 21.0242 35.2956 21.0782 35.4297C21.1323 35.5638 21.2128 35.6856 21.3148 35.7879C21.4169 35.8902 21.5385 35.9708 21.6723 36.025C21.8061 36.0791 21.9495 36.1057 22.0938 36.1032C22.2381 36.1006 22.3805 36.069 22.5123 36.0101C22.6442 35.9513 22.7628 35.8664 22.8612 35.7606L21.3421 34.2385ZM27.8343 49H42.1657V46.8461H27.8343V49ZM46.1069 45.0511V32.1276H43.9572V45.0511H46.1069ZM26.0428 45.0511V32.1276H23.8931V45.0511H26.0428ZM48.6579 34.2385L35.7596 21.315L34.2404 22.8371L47.1388 35.7606L48.6579 34.2385ZM34.2404 21.315L21.3421 34.2385L22.8612 35.7606L35.7596 22.8371L34.2404 21.315ZM42.1657 49C43.211 49 44.2134 48.584 44.9526 47.8434C45.6917 47.1029 46.1069 46.0984 46.1069 45.0511H43.9572C43.9572 46.042 43.1546 46.8461 42.1657 46.8461V49ZM27.8343 46.8461C26.8454 46.8461 26.0428 46.042 26.0428 45.0511H23.8931C23.8931 46.0984 24.3083 47.1029 25.0474 47.8434C25.7866 48.584 26.789 49 27.8343 49V46.8461Z" fill="black"/>
</svg>
