<svg width="34" height="26" viewBox="0 0 34 26" fill="none" xmlns="http://www.w3.org/2000/svg">
<path d="M17 2.16557C16.5604 2.16554 16.1317 2.30452 15.7728 2.56336C15.4139 2.8222 15.1426 3.18815 14.9962 3.61081C14.8956 3.87258 14.6991 4.0842 14.4482 4.20096C14.1974 4.31771 13.9118 4.33046 13.652 4.2365C13.3921 4.14254 13.1782 3.94923 13.0555 3.69743C12.9328 3.44563 12.9109 3.15505 12.9945 2.88711C13.2045 2.28236 13.5436 1.73269 13.9872 1.27779C14.4308 0.822896 14.968 0.474113 15.5599 0.256623C16.1518 0.0391329 16.7837 -0.0416383 17.4099 0.0201397C18.0361 0.0819177 18.6411 0.284704 19.1811 0.613859C19.7212 0.943015 20.1828 1.39033 20.5327 1.92351C20.8826 2.45669 21.112 3.06243 21.2044 3.69702C21.2968 4.3316 21.2499 4.97919 21.0671 5.59304C20.8842 6.20688 20.57 6.77168 20.147 7.24664C19.9445 7.47198 19.7525 7.67999 19.5712 7.87067C19.2376 8.22602 18.9337 8.5467 18.6532 8.91938C18.2452 9.46107 18.0646 9.89443 18.0646 10.2909C18.0645 10.5856 18.1429 10.8747 18.2915 11.1273C18.4401 11.38 18.6533 11.5867 18.9082 11.7253L32.0318 18.8627C32.7635 19.2607 33.3437 19.8968 33.6802 20.6697C34.0166 21.4426 34.0901 22.308 33.8888 23.1283C33.6876 23.9487 33.2232 24.6769 32.5694 25.1972C31.9157 25.7176 31.1101 26.0001 30.2808 26H3.71917C2.88986 26.0001 2.0843 25.7176 1.43056 25.1972C0.776821 24.6769 0.312413 23.9487 0.11116 23.1283C-0.0900922 22.308 -0.0166384 21.4426 0.319846 20.6697C0.65633 19.8968 1.23653 19.2607 1.96822 18.8627L13.3132 12.6939C13.4367 12.6212 13.5733 12.5745 13.7148 12.5567C13.8563 12.5389 13.9999 12.5504 14.137 12.5904C14.2741 12.6304 14.4019 12.6981 14.5128 12.7895C14.6236 12.8809 14.7153 12.9942 14.7824 13.1225C14.8495 13.2508 14.8905 13.3916 14.9031 13.5364C14.9157 13.6812 14.8995 13.8272 14.8556 13.9655C14.8117 14.1038 14.741 14.2317 14.6476 14.3416C14.5542 14.4515 14.44 14.541 14.312 14.605L2.96907 20.7738C2.65519 20.9442 2.40622 21.2167 2.26179 21.5481C2.11735 21.8794 2.08574 22.2505 2.17199 22.6023C2.25823 22.9541 2.45738 23.2663 2.73774 23.4894C3.0181 23.7124 3.36357 23.8335 3.71917 23.8332H30.2808C30.6364 23.8335 30.9819 23.7124 31.2623 23.4894C31.5426 23.2663 31.7418 22.9541 31.828 22.6023C31.9143 22.2505 31.8826 21.8794 31.7382 21.5481C31.5938 21.2167 31.3448 20.9442 31.0309 20.7738L17.9073 13.6364C17.3129 13.3129 16.8158 12.8308 16.4692 12.2415C16.1227 11.6523 15.9396 10.978 15.9397 10.2909C15.9397 9.1924 16.4433 8.29319 16.9681 7.59765C17.3187 7.13397 17.765 6.65945 18.1432 6.25426C18.3047 6.08525 18.4485 5.92997 18.5746 5.78841C18.8512 5.47761 19.0333 5.09159 19.0988 4.67726C19.1643 4.26293 19.1104 3.83811 18.9437 3.45442C18.7769 3.07073 18.5044 2.74468 18.1594 2.51588C17.8144 2.28708 17.4116 2.16538 17 2.16557Z" fill="white"/>
</svg>
